HIERARCHY
ROOT Hips
{
	OFFSET 0.000000 0.000000 0.000000
	CHANNELS 6 Xposition Yposition Zposition Zrotation Yrotation Xrotation 
	JOINT LHipJoint
	{
		OFFSET 0.000000 0.000000 0.000000
		CHANNELS 3 Zrotation Yrotation Xrotation
		JOINT LeftUpLeg
		{
			OFFSET 1.363060 -1.794630 0.839290
			CHANNELS 3 Zrotation Yrotation Xrotation
			JOINT LeftLeg
			{
				OFFSET 2.448110 -6.726130 0.000000
				CHANNELS 3 Zrotation Yrotation Xrotation
				JOINT LeftFoot
				{
					OFFSET 2.562200 -7.039590 0.000000
					CHANNELS 3 Zrotation Yrotation Xrotation
					JOINT LeftToeBase
					{
						OFFSET 0.157640 -0.433110 2.322550
						CHANNELS 3 Zrotation Yrotation Xrotation
						End Site
						{
							OFFSET 0.000000 0.000000 0.000000
						}
					}
				}
			}
		}
	}
	JOINT RHipJoint
	{
		OFFSET 0.000000 0.000000 0.000000
		CHANNELS 3 Zrotation Yrotation Xrotation
		JOINT RightUpLeg
		{
			OFFSET -1.305520 -1.794630 0.839290
			CHANNELS 3 Zrotation Yrotation Xrotation
			JOINT RightLeg
			{
				OFFSET -2.542530 -6.985550 0.000000
				CHANNELS 3 Zrotation Yrotation Xrotation
				JOINT RightFoot
				{
					OFFSET -2.568260 -7.056230 0.000000
					CHANNELS 3 Zrotation Yrotation Xrotation
					JOINT RightToeBase
					{
						OFFSET -0.164730 -0.452590 2.363150
						CHANNELS 3 Zrotation Yrotation Xrotation
						End Site
						{
							OFFSET 0.000000 0.000000 0.000000
						}
					}
				}
			}
		}
	}
	JOINT LowerBack
	{
		OFFSET 0.000000 0.000000 0.000000
		CHANNELS 3 Zrotation Yrotation Xrotation
		JOINT Spine
		{
			OFFSET 0.028270 2.035590 -0.193380
			CHANNELS 3 Zrotation Yrotation Xrotation
			JOINT Spine1
			{
				OFFSET 0.056720 2.048850 -0.042750
				CHANNELS 3 Zrotation Yrotation Xrotation
				JOINT Neck
				{
					OFFSET 0.000000 0.000000 0.000000
					CHANNELS 3 Zrotation Yrotation Xrotation
					JOINT Neck1
					{
						OFFSET -0.054170 1.746240 0.172020
						CHANNELS 3 Zrotation Yrotation Xrotation
						JOINT Head
						{
							OFFSET 0.104070 1.761360 -0.123970
							CHANNELS 3 Zrotation Yrotation Xrotation
							End Site
							{
								OFFSET 0.000000 0.000000 0.000000
							}
						}
					}
				}
				JOINT LeftShoulder
				{
					OFFSET 0.000000 0.000000 0.000000
					CHANNELS 3 Zrotation Yrotation Xrotation
					JOINT LeftArm
					{
						OFFSET 3.362410 1.200890 -0.311210
						CHANNELS 3 Zrotation Yrotation Xrotation
						JOINT LeftForeArm
						{
							OFFSET 4.983000 -0.000000 -0.000000
							CHANNELS 3 Zrotation Yrotation Xrotation
							JOINT LeftHand
							{
								OFFSET 3.483560 -0.000000 -0.000000
								CHANNELS 3 Zrotation Yrotation Xrotation
								JOINT LeftFingerBase
								{
									OFFSET 0.000000 0.000000 0.000000
									CHANNELS 3 Zrotation Yrotation Xrotation
									JOINT LeftHandIndex1
									{
										OFFSET 0.715260 -0.000000 -0.000000
										CHANNELS 3 Zrotation Yrotation Xrotation
										End Site
										{
											OFFSET 0.000000 0.000000 0.000000
										}
									}
								}
								JOINT LThumb
								{
									OFFSET 0.000000 0.000000 0.000000
									CHANNELS 3 Zrotation Yrotation Xrotation
									End Site
									{
										OFFSET 0.000000 0.000000 0.000000
									}
								}
							}
						}
					}
				}
				JOINT RightShoulder
				{
					OFFSET 0.000000 0.000000 0.000000
					CHANNELS 3 Zrotation Yrotation Xrotation
					JOINT RightArm
					{
						OFFSET -3.136600 1.374050 -0.404650
						CHANNELS 3 Zrotation Yrotation Xrotation
						JOINT RightForeArm
						{
							OFFSET -5.241900 -0.000000 -0.000000
							CHANNELS 3 Zrotation Yrotation Xrotation
							JOINT RightHand
							{
								OFFSET -3.444170 -0.000000 -0.000000
								CHANNELS 3 Zrotation Yrotation Xrotation
								JOINT RightFingerBase
								{
									OFFSET 0.000000 0.000000 0.000000
									CHANNELS 3 Zrotation Yrotation Xrotation
									JOINT RightHandIndex1
									{
										OFFSET -0.622530 -0.000000 -0.000000
										CHANNELS 3 Zrotation Yrotation Xrotation
										End Site
										{
											OFFSET 0.000000 0.000000 0.000000
										}
									}
								}
								JOINT RThumb
								{
									OFFSET 0.000000 0.000000 0.000000
									CHANNELS 3 Zrotation Yrotation Xrotation
									End Site
									{
										OFFSET 0.000000 0.000000 0.000000
									}
								}
							}
						}
					}
				}
			}
		}
	}
}
MOTION
Frames: 9
Frame Time: 0.008333
10.059295 15.109231 6.167805 -3.452317 -46.000194 15.698113 1.116715 -3.623138 -4.823072 -1.442187 -1.887335 -84.260609 23.720547 20.878021 98.188399 0.401436 0.290424 2.307436 1.228500 -7.029300 -19.802300 1.783464 4.357578 -4.529104 20.657696 11.127275 -56.318219 -15.189696 -20.028927 75.674941 0.893013 -8.432637 -18.418308 -0.033000 1.172500 -3.223500 3.020014 -3.475221 55.808461 1.254450 -5.037315 -0.926715 -5.640606 -2.832591 1.902728 1.585961 1.117367 -2.373426 -1.625923 2.819632 -7.496274 -1.336400 1.537800 -7.311900 10.477556 -2.273692 4.279752 8.628909 -55.188580 -21.657300 75.315656 -55.320847 -56.847733 0.320513 -4.096036 -60.364307 39.554598 10.567945 11.736800 -7.125000 0.000000 0.000000 15.060000 46.760100 0.668900 -13.583576 3.623117 4.120842 68.914098 13.095969 45.406763 -127.201194 50.266125 -94.643562 0.351203 -0.403882 9.688911 -37.043976 -5.117457 3.564500 7.125000 0.000000 0.000000 -9.027600 -35.724400 -2.079000 
10.014672 15.072482 6.234521 -3.542068 -46.176792 15.532902 1.124073 -3.704178 -4.943994 -1.357425 -2.282031 -84.247453 22.756286 21.058523 95.078385 0.046905 1.477380 2.006356 1.215700 -6.994000 -19.697600 1.820118 4.345360 -4.453489 20.749074 11.126838 -56.084309 -15.379821 -20.041710 76.265139 0.792616 -8.375519 -18.940584 -0.041500 1.314800 -3.615400 2.964398 -3.408058 56.074186 1.247171 -5.010910 -0.934451 -5.630647 -2.819291 1.842053 1.611445 1.126041 -2.320906 -1.630096 2.836942 -7.494988 -1.346700 1.544000 -7.326800 10.505991 -2.273348 4.370395 9.356499 -55.136952 -22.587688 74.330248 -55.057026 -56.017758 0.318930 -4.143588 -60.525246 39.446860 10.661662 11.794400 -7.125000 0.000000 0.000000 15.015700 46.868700 0.707900 -13.604415 3.642997 4.097899 68.922212 13.876730 45.352444 -127.229266 50.179653 -94.707570 0.360915 -0.382871 9.538665 -36.691662 -5.371836 3.731300 7.125000 0.000000 0.000000 -8.760100 -36.053400 -1.945100 
9.968627 15.042624 6.301565 -3.640236 -46.334480 15.396377 1.126902 -3.799179 -5.081983 -1.338235 -2.606401 -84.033922 21.698340 21.193405 91.732921 -0.302620 2.601051 1.755485 1.202300 -6.956900 -19.587900 1.864924 4.338546 -4.374386 20.834439 11.128483 -55.827667 -15.543335 -20.046959 76.776729 0.696254 -8.323625 -19.437688 -0.049500 1.436100 -3.949500 2.924626 -3.352124 56.282211 1.242148 -4.992467 -0.942344 -5.624006 -2.808688 1.787510 1.633585 1.139053 -2.271044 -1.626982 2.859150 -7.475768 -1.352500 1.552800 -7.331900 10.531102 -2.275421 4.441848 9.938229 -55.123493 -23.351802 73.395376 -54.800248 -55.213012 0.315793 -4.186857 -60.737379 39.352030 10.753688 11.848100 -7.125000 0.000000 0.000000 14.981500 46.967100 0.743400 -13.625279 3.662983 4.078103 68.953111 14.617012 45.347080 -127.199914 50.123084 -94.716492 0.370534 -0.363189 9.417801 -36.334929 -5.627890 3.892600 7.125000 0.000000 0.000000 -8.486400 -36.379400 -1.815000 
9.920942 15.018891 6.368936 -3.747691 -46.476528 15.290313 1.125486 -3.908204 -5.238507 -1.386519 -2.852881 -83.628246 20.549259 21.269612 88.167979 -0.629916 3.614332 1.600276 1.186800 -6.913400 -19.458900 1.917661 4.336834 -4.291646 20.915833 11.136747 -55.551754 -15.681436 -20.045532 77.214318 0.610735 -8.294891 -19.912601 -0.058200 1.556200 -4.280800 2.900722 -3.303426 56.431259 1.238761 -4.977711 -0.949142 -5.623885 -2.798481 1.747361 1.657029 1.154642 -2.237956 -1.618470 2.883829 -7.437805 -1.355300 1.562600 -7.323400 10.553588 -2.277853 4.496358 10.401559 -55.155871 -23.976709 72.510928 -54.552771 -54.433264 0.311474 -4.225105 -60.991283 39.256529 10.842226 11.891200 -7.125000 0.000000 0.000000 14.942100 47.051500 0.773100 -13.645819 3.681487 4.060664 69.006917 15.312216 45.383783 -127.119725 50.094561 -94.676007 0.379975 -0.345020 9.319239 -35.975810 -5.877858 4.042600 7.125000 0.000000 0.000000 -8.207400 -36.692900 -1.690900 
9.871616 15.000626 6.436746 -3.861988 -46.601117 15.216942 1.119842 -4.031311 -5.414390 -1.503357 -3.020829 -83.049086 19.313329 21.273626 84.399205 -0.929805 4.511383 1.567739 1.179700 -6.893600 -19.400400 1.977589 4.339926 -4.205047 20.989203 11.162596 -55.263007 -15.796096 -20.038690 77.584689 0.539022 -8.299979 -20.372570 -0.067600 1.677600 -4.615600 2.889144 -3.264166 56.515209 1.236655 -4.971758 -0.954997 -5.630690 -2.790464 1.721835 1.681881 1.175751 -2.217208 -1.604915 2.915539 -7.382377 -1.355400 1.575600 -7.303200 10.572456 -2.280341 4.535277 10.749050 -55.219377 -24.463180 71.674216 -54.315618 -53.680212 0.306423 -4.258807 -61.266842 39.152128 10.925966 11.921000 -7.125000 0.000000 0.000000 14.889400 47.121100 0.796300 -13.666416 3.698395 4.045678 69.087446 15.957682 45.474677 -127.000422 50.088615 -94.593826 0.389386 -0.328899 9.231071 -35.625052 -6.113863 4.177100 7.125000 0.000000 0.000000 -7.931900 -36.984400 -1.576300 
9.820541 14.987721 6.504883 -3.977685 -46.713777 15.169747 1.109215 -4.168786 -5.610795 -1.683888 -3.107047 -82.298360 17.994925 21.192071 80.440620 -1.191296 5.271059 1.682820 1.182500 -6.901200 -19.423100 2.045429 4.347621 -4.113711 21.050726 11.210738 -54.959916 -15.889309 -20.027420 77.892776 0.477966 -8.333044 -20.822646 -0.077900 1.800900 -4.955700 2.883996 -3.228577 56.538754 1.234919 -4.970699 -0.960006 -5.646889 -2.782570 1.708882 1.709110 1.200634 -2.207800 -1.584418 2.951844 -7.309701 -1.351800 1.590700 -7.271700 10.588081 -2.282493 4.558477 10.986433 -55.324714 -24.811303 70.879122 -54.088235 -52.945569 0.299349 -4.286802 -61.529371 39.030750 11.010601 11.938900 -7.125000 0.000000 0.000000 14.814000 47.182300 0.814900 -13.687750 3.713794 4.033061 69.201046 16.544023 45.618094 -126.847857 50.103081 -94.474479 0.399270 -0.315185 9.141568 -35.293573 -6.334896 4.297700 7.125000 0.000000 0.000000 -7.670100 -37.253000 -1.472700 
9.767496 14.979627 6.573677 -4.099453 -46.815719 15.146282 1.093236 -4.320662 -5.828759 -1.928570 -3.101231 -81.387487 16.604062 21.012003 76.318651 -1.405892 5.882441 1.963722 1.188100 -6.917200 -19.470300 2.122132 4.359148 -4.016637 21.103462 11.283752 -54.637156 -15.962497 -20.011638 78.144086 0.427536 -8.395042 -21.266088 -0.089300 1.927000 -5.304000 2.887431 -3.197288 56.508326 1.233134 -4.975192 -0.964133 -5.674187 -2.774981 1.707606 1.738018 1.228788 -2.206400 -1.556563 2.992586 -7.222597 -1.344000 1.607900 -7.231400 10.600047 -2.283805 4.567901 11.123493 -55.461740 -25.031529 70.122147 -53.870595 -52.228993 0.290291 -4.309294 -61.754018 38.883904 11.097225 11.944000 -7.125000 0.000000 0.000000 14.707100 47.237800 0.829300 -13.709854 3.727727 4.022689 69.347297 17.065686 45.815615 -126.669137 50.134624 -94.323312 0.409764 -0.304220 9.041384 -34.992530 -6.536330 4.403300 7.125000 0.000000 0.000000 -7.431600 -37.494000 -1.382100 
9.712483 14.975909 6.643455 -4.223295 -46.912586 15.135641 1.069302 -4.487654 -6.068599 -2.234912 -3.003804 -80.314584 15.152550 20.721746 72.058295 -1.582664 6.384798 2.387492 1.205800 -6.966500 -19.616300 2.209164 4.374610 -3.913069 21.145197 11.382594 -54.287757 -16.017383 -19.991480 78.342778 0.387672 -8.484913 -21.701688 -0.100900 2.048700 -5.640400 2.890830 -3.166405 56.434936 1.230848 -4.984374 -0.967307 -5.709938 -2.767627 1.715813 1.766825 1.260398 -2.208642 -1.521587 3.038193 -7.125935 -1.331900 1.627500 -7.185800 10.608186 -2.284415 4.564722 11.163290 -55.622494 -25.126987 69.400165 -53.662634 -51.529869 0.278378 -4.326375 -61.918254 38.714452 11.183156 11.936100 -7.125000 0.000000 0.000000 14.570900 47.285900 0.838900 -13.733065 3.740567 4.014662 69.529157 17.522348 46.068405 -126.469408 50.180519 -94.144398 0.421032 -0.296289 8.925448 -34.731646 -6.713923 4.493400 7.125000 0.000000 0.000000 -7.225600 -37.702900 -1.306100 
9.655392 14.976565 6.714436 -4.351780 -47.005248 15.131477 1.034980 -4.670664 -6.330578 -2.590002 -2.814132 -79.085541 13.656628 20.312473 67.692163 -1.725737 6.801861 2.944116 1.235700 -7.049400 -19.861800 2.308217 4.393062 -3.802087 21.178529 11.505546 -53.902291 -16.054072 -19.966910 78.490600 0.356655 -8.601637 -22.136390 -0.112800 2.165900 -5.964200 2.901505 -3.137280 56.326611 1.227336 -4.998741 -0.968961 -5.761671 -2.759417 1.733759 1.795535 1.290950 -2.212018 -1.479749 3.083151 -7.024614 -1.314700 1.647100 -7.138000 10.612127 -2.283079 4.549435 11.108071 -55.813770 -25.102628 68.716827 -53.465674 -50.850609 0.262515 -4.336495 -62.005490 38.521978 11.258401 11.906000 -7.125000 0.000000 0.000000 14.402000 47.314000 0.839000 -13.757827 3.752694 4.009077 69.750188 17.911715 46.370480 -126.248041 50.240944 -93.937490 0.433562 -0.291673 8.798309 -34.519388 -6.875677 4.575900 7.125000 0.000000 0.000000 -7.060700 -37.890100 -1.243300 
